<?xml version="1.0" encoding="UTF-8"?>
<svg id="Layer_1" data-name="Layer 1" xmlns="http://www.w3.org/2000/svg" version="1.1" viewBox="0 0 18.8 18.8">
  <defs>
    <style>
      .cls-1 {
        fill: #000;
        font-family: abnes-Regular, abnes;
        font-size: 6.5px;
      }

      .cls-2 {
        fill: red;
        stroke-width: 0px;
      }
    </style>
  </defs>
  <path class="cls-2" d="M0,9.4c0-1.7.5-3.3,1.3-4.8l4.2,4.2-.6.6-3.5-3.4c-.5,1.1-.7,2.3-.7,3.4,0,4.8,3.9,8.6,8.6,8.6s2.9-.4,4.2-1.1l.6.6c-1.4.9-3.1,1.3-4.8,1.3-5.2,0-9.4-4.2-9.4-9.4ZM4.6,1.3c1.4-.8,3.1-1.3,4.8-1.3,5.2,0,9.4,4.2,9.4,9.4s-.5,3.3-1.3,4.8l-4.2-4.2.6-.6,3.5,3.4c.5-1.1.7-2.3.7-3.4C18,4.6,14.2.8,9.4.8s-2.9.4-4.2,1.1l-.6-.6h0Z"/>
  <text class="cls-1" transform="translate(7.4 12) scale(.5 1)"><tspan x="0" y="0">F</tspan></text>
</svg>