<?xml version="1.0" encoding="UTF-8"?>
<svg id="Layer_1" data-name="Layer 1" xmlns="http://www.w3.org/2000/svg" viewBox="0 0 18.8 18.8">
    <defs>
        <style>
            .cls-1 {
            fill: #eff0f1;
            stroke-width: 0px;
            }
        </style>
    </defs>
    <path class="cls-1" d="M0,9.4c0-1.68.46-3.32,1.31-4.77l4.21,4.21-.56.55-3.45-3.45c-.48,1.09-.73,2.26-.73,3.45,0,4.76,3.86,8.62,8.62,8.62,1.47,0,2.91-.38,4.19-1.1l.57.57c-1.44.85-3.09,1.31-4.76,1.31C4.21,18.8,0,14.59,0,9.4ZM4.63,1.31C6.08.46,7.72,0,9.4,0c5.19,0,9.4,4.21,9.4,9.4,0,1.68-.46,3.32-1.31,4.77l-4.21-4.21.55-.55,3.45,3.45c.48-1.09.73-2.26.74-3.45C18.02,4.64,14.16.78,9.4.78c-1.47,0-2.91.38-4.19,1.1l-.57-.57Z"/>
</svg>